<?xml version="1.0" encoding="utf-8"?>
<!-- Generator: Adobe Illustrator 21.1.0, SVG Export Plug-In . SVG Version: 6.00 Build 0)  -->
<svg version="1.1" id="Layer_1" xmlns="http://www.w3.org/2000/svg" xmlns:xlink="http://www.w3.org/1999/xlink" x="0px" y="0px"
	 width="27.9px" height="34.6px" viewBox="0 0 27.9 34.6" style="enable-background:new 0 0 27.9 34.6;" xml:space="preserve">
<style type="text/css">
	.st0{fill-rule:evenodd;clip-rule:evenodd;fill:#F0EFF8;}
</style>
<path class="st0" d="M19.8,14.2c-0.8,0.8-1.2,1.1-2.1,1.5c-3.4,1.7-7.2,1-9.8-1.7c-2.6-2.7-3-6.7-1.1-10c0.5-0.9,2-2.4,2.9-2.9
	C11.5,0,13.7-0.3,16,0.2c1.6,0.4,3.3,1.5,4.4,2.8C23.1,6.3,22.8,11.1,19.8,14.2z"/>
<path class="st0" d="M27.9,28c0,0.8-0.3,1.2-1.2,2c-5.5,4.5-12.8,5.9-19.5,3.5c-2-0.7-4.3-2.1-6.1-3.5C0.2,29.1,0,28.7,0,28
	c0-0.6,0.2-1,1.5-2.2c2.6-2.5,5.9-4.1,9.7-4.7c1.2-0.2,4.1-0.2,5.3,0c3.9,0.5,7.3,2.2,10,4.9C27.6,27,27.9,27.4,27.9,28z"/>
</svg>
